<svg width="28" height="24" viewBox="0 0 28 24" fill="none" xmlns="http://www.w3.org/2000/svg">
<path d="M23.3069 15.8342L23.5086 11.8564C23.5579 10.8851 23.0491 9.97075 22.1978 9.50053L14.8694 5.45265C14.2772 5.12553 13.5791 5.04777 12.9294 5.23656L7.48097 6.81979C6.50686 7.10285 5.79398 7.93753 5.6668 8.94393L5.23896 12.3295L5.03584 15.4622C4.97453 16.4077 5.44184 17.3217 6.2811 17.7615C13.8168 21.7105 19.779 19.5547 22.5082 17.4684C23.0141 17.0817 23.2746 16.4701 23.3069 15.8342Z" fill="white"/>
<path d="M14.2342 13.8347C14.0613 13.8362 13.8908 13.8061 13.7216 13.7429L5.88092 10.7324C5.73452 11.1685 5.65846 11.7298 5.65142 12.5479C6.16162 12.8923 6.65588 13.5892 6.64547 14.7981C6.63909 15.5389 6.3191 16.0743 6.04478 16.4306C7.19809 18.0098 10.4 19.1244 14.1899 19.0911C18.9654 19.0492 22.8509 17.2013 22.8701 14.9676C22.8743 14.4741 22.8917 12.4588 22.9087 10.4801L14.7462 13.7339C14.5781 13.8001 14.4069 13.8332 14.2342 13.8347Z" fill="#E6BF58"/>
<mask id="mask0_2517_1619" style="mask-type:luminance" maskUnits="userSpaceOnUse" x="0" y="0" width="28" height="24">
<path d="M0.273926 1.01978L27.9999 0.665623L27.7259 22.6894L-8.877e-05 23.0436L0.273926 1.01978Z" fill="white"/>
</mask>
<g mask="url(#mask0_2517_1619)">
<path d="M27.5654 5.73636L14.5619 0.88028C14.4492 0.838929 14.3306 0.840445 14.2178 0.884676L1.08931 6.07452C0.866153 6.16273 0.712847 6.40449 0.70949 6.67431C0.706131 6.94435 0.853469 7.18227 1.0745 7.26481L4.0555 8.37818C3.35477 9.30855 2.93793 10.6134 2.76469 12.73C2.28773 12.9935 1.94673 13.5465 1.9387 14.192C1.93053 14.8487 2.26548 15.4031 2.75003 15.6493C2.27112 19.9304 0.0334042 21.3841 0.0288581 21.7495C0.0265473 21.9352 1.73252 22.9832 2.14073 22.978C2.77234 22.9699 4.30337 21.7149 4.33656 19.0467C4.35612 17.4744 4.24789 16.2881 4.12878 15.4471C4.48185 15.15 4.7303 14.6937 4.73699 14.1562C4.74428 13.5697 4.46612 13.0836 4.0635 12.8064C4.33673 9.3136 5.27927 8.71791 7.55548 7.60647C7.78318 7.5006 8.21346 7.29549 8.46227 7.17436C8.90908 6.95774 9.31322 6.76426 9.70085 6.58098C10.9525 5.99503 12.0099 5.5232 12.8166 5.17253C13.6999 4.79981 14.0958 4.6629 14.11 4.65772C14.448 4.52264 14.8199 4.72772 14.9305 5.12164C15.0399 5.51448 14.8517 5.94392 14.507 6.08126C14.4807 6.0918 12.9458 6.6149 8.94468 8.56184C8.68717 8.68676 8.44204 8.80046 8.20865 8.909C7.73467 9.12966 7.34146 9.30672 7.01173 9.48404L14.0779 12.1222C14.1344 12.1415 14.1908 12.152 14.2497 12.1513C14.3085 12.1505 14.3652 12.1385 14.4221 12.1165L27.5506 6.92665C27.7739 6.83843 27.927 6.59668 27.9304 6.32664C27.9337 6.05682 27.7866 5.81889 27.5654 5.73636Z" fill="#E6BF58"/>
</g>
</svg>
